<svg viewBox="0 0 1434 400" xmlns="http://www.w3.org/2000/svg"><g><g><g><g><g><line x1="41.6875" y1="375" x2="36.6875" y2="375" style="visibility: inherit;" fill="rgb(0, 0, 0)" stroke="rgb(204, 204, 204)" stroke-width="1px"></line><line x1="41.6875" y1="328.125" x2="36.6875" y2="328.125" style="visibility: inherit;" fill="rgb(0, 0, 0)" stroke="rgb(204, 204, 204)" stroke-width="1px"></line><line x1="41.6875" y1="281.25" x2="36.6875" y2="281.25" style="visibility: inherit;" fill="rgb(0, 0, 0)" stroke="rgb(204, 204, 204)" stroke-width="1px"></line><line x1="41.6875" y1="234.375" x2="36.6875" y2="234.375" style="visibility: inherit;" fill="rgb(0, 0, 0)" stroke="rgb(204, 204, 204)" stroke-width="1px"></line><line x1="41.6875" y1="187.5" x2="36.6875" y2="187.5" style="visibility: inherit;" fill="rgb(0, 0, 0)" stroke="rgb(204, 204, 204)" stroke-width="1px"></line><line x1="41.6875" y1="140.625" x2="36.6875" y2="140.625" style="visibility: inherit;" fill="rgb(0, 0, 0)" stroke="rgb(204, 204, 204)" stroke-width="1px"></line><line x1="41.6875" y1="93.75" x2="36.6875" y2="93.75" style="visibility: inherit;" fill="rgb(0, 0, 0)" stroke="rgb(204, 204, 204)" stroke-width="1px"></line><line x1="41.6875" y1="46.875" x2="36.6875" y2="46.875" style="visibility: inherit;" fill="rgb(0, 0, 0)" stroke="rgb(204, 204, 204)" stroke-width="1px"></line><line x1="41.6875" y1="0" x2="36.6875" y2="0" style="visibility: inherit;" fill="rgb(0, 0, 0)" stroke="rgb(204, 204, 204)" stroke-width="1px"></line></g><g transform="translate(31.6875, 0)"><text x="0" y="375" dx="0em" dy="0.3em" style="text-anchor: end; visibility: hidden; font-family: &quot;Helvetica Neue&quot;, sans-serif; font-size: 12px; font-weight: 200;" fill="rgb(33, 33, 33)" stroke="none" stroke-width="1px">20</text><text x="0" y="328.125" dx="0em" dy="0.3em" style="text-anchor: end; visibility: inherit; font-family: &quot;Helvetica Neue&quot;, sans-serif; font-size: 12px; font-weight: 200;" fill="rgb(33, 33, 33)" stroke="none" stroke-width="1px">30</text><text x="0" y="281.25" dx="0em" dy="0.3em" style="text-anchor: end; visibility: inherit; font-family: &quot;Helvetica Neue&quot;, sans-serif; font-size: 12px; font-weight: 200;" fill="rgb(33, 33, 33)" stroke="none" stroke-width="1px">40</text><text x="0" y="234.375" dx="0em" dy="0.3em" style="text-anchor: end; visibility: inherit; font-family: &quot;Helvetica Neue&quot;, sans-serif; font-size: 12px; font-weight: 200;" fill="rgb(33, 33, 33)" stroke="none" stroke-width="1px">50</text><text x="0" y="187.5" dx="0em" dy="0.3em" style="text-anchor: end; visibility: inherit; font-family: &quot;Helvetica Neue&quot;, sans-serif; font-size: 12px; font-weight: 200;" fill="rgb(33, 33, 33)" stroke="none" stroke-width="1px">60</text><text x="0" y="140.625" dx="0em" dy="0.3em" style="text-anchor: end; visibility: inherit; font-family: &quot;Helvetica Neue&quot;, sans-serif; font-size: 12px; font-weight: 200;" fill="rgb(33, 33, 33)" stroke="none" stroke-width="1px">70</text><text x="0" y="93.75" dx="0em" dy="0.3em" style="text-anchor: end; visibility: inherit; font-family: &quot;Helvetica Neue&quot;, sans-serif; font-size: 12px; font-weight: 200;" fill="rgb(33, 33, 33)" stroke="none" stroke-width="1px">80</text><text x="0" y="46.875" dx="0em" dy="0.3em" style="text-anchor: end; visibility: inherit; font-family: &quot;Helvetica Neue&quot;, sans-serif; font-size: 12px; font-weight: 200;" fill="rgb(33, 33, 33)" stroke="none" stroke-width="1px">90</text><text x="0" y="0" dx="0em" dy="0.3em" style="text-anchor: end; visibility: hidden; font-family: &quot;Helvetica Neue&quot;, sans-serif; font-size: 12px; font-weight: 200;" fill="rgb(33, 33, 33)" stroke="none" stroke-width="1px">100</text></g><line x1="41.6875" y1="0" x2="41.6875" y2="375" fill="rgb(0, 0, 0)" stroke="rgb(204, 204, 204)" stroke-width="1px"></line></g></g><g transform="translate(41, 0)" clip-path="url(#clip_0)"><clipPath id="clip_0"><rect width="1392" height="375"></rect></clipPath><g><g><g><line x1="0" y1="0" x2="0" y2="375" fill="rgb(0, 0, 0)" stroke="rgb(66, 66, 66)" stroke-width="1px" opacity="0.25"></line><line x1="116.02604166666666" y1="0" x2="116.02604166666666" y2="375" fill="rgb(0, 0, 0)" stroke="rgb(66, 66, 66)" stroke-width="1px" opacity="0.25"></line><line x1="232.05208333333331" y1="0" x2="232.05208333333331" y2="375" fill="rgb(0, 0, 0)" stroke="rgb(66, 66, 66)" stroke-width="1px" opacity="0.25"></line><line x1="348.078125" y1="0" x2="348.078125" y2="375" fill="rgb(0, 0, 0)" stroke="rgb(66, 66, 66)" stroke-width="1px" opacity="0.25"></line><line x1="464.10416666666663" y1="0" x2="464.10416666666663" y2="375" fill="rgb(0, 0, 0)" stroke="rgb(66, 66, 66)" stroke-width="1px" opacity="0.25"></line><line x1="580.1302083333334" y1="0" x2="580.1302083333334" y2="375" fill="rgb(0, 0, 0)" stroke="rgb(66, 66, 66)" stroke-width="1px" opacity="0.25"></line><line x1="696.15625" y1="0" x2="696.15625" y2="375" fill="rgb(0, 0, 0)" stroke="rgb(66, 66, 66)" stroke-width="1px" opacity="0.25"></line><line x1="812.1822916666667" y1="0" x2="812.1822916666667" y2="375" fill="rgb(0, 0, 0)" stroke="rgb(66, 66, 66)" stroke-width="1px" opacity="0.25"></line><line x1="928.2083333333333" y1="0" x2="928.2083333333333" y2="375" fill="rgb(0, 0, 0)" stroke="rgb(66, 66, 66)" stroke-width="1px" opacity="0.25"></line><line x1="1044.234375" y1="0" x2="1044.234375" y2="375" fill="rgb(0, 0, 0)" stroke="rgb(66, 66, 66)" stroke-width="1px" opacity="0.25"></line><line x1="1160.2604166666667" y1="0" x2="1160.2604166666667" y2="375" fill="rgb(0, 0, 0)" stroke="rgb(66, 66, 66)" stroke-width="1px" opacity="0.25"></line><line x1="1276.2864583333333" y1="0" x2="1276.2864583333333" y2="375" fill="rgb(0, 0, 0)" stroke="rgb(66, 66, 66)" stroke-width="1px" opacity="0.25"></line><line x1="1392.3125" y1="0" x2="1392.3125" y2="375" fill="rgb(0, 0, 0)" stroke="rgb(66, 66, 66)" stroke-width="1px" opacity="0.25"></line></g><g><line x1="0" y1="375" x2="1392.3125" y2="375" fill="rgb(0, 0, 0)" stroke="rgb(66, 66, 66)" stroke-width="1px" opacity="0.25"></line><line x1="0" y1="328.125" x2="1392.3125" y2="328.125" fill="rgb(0, 0, 0)" stroke="rgb(66, 66, 66)" stroke-width="1px" opacity="0.25"></line><line x1="0" y1="281.25" x2="1392.3125" y2="281.25" fill="rgb(0, 0, 0)" stroke="rgb(66, 66, 66)" stroke-width="1px" opacity="0.25"></line><line x1="0" y1="234.375" x2="1392.3125" y2="234.375" fill="rgb(0, 0, 0)" stroke="rgb(66, 66, 66)" stroke-width="1px" opacity="0.25"></line><line x1="0" y1="187.5" x2="1392.3125" y2="187.5" fill="rgb(0, 0, 0)" stroke="rgb(66, 66, 66)" stroke-width="1px" opacity="0.25"></line><line x1="0" y1="140.625" x2="1392.3125" y2="140.625" fill="rgb(0, 0, 0)" stroke="rgb(66, 66, 66)" stroke-width="1px" opacity="0.25"></line><line x1="0" y1="93.75" x2="1392.3125" y2="93.75" fill="rgb(0, 0, 0)" stroke="rgb(66, 66, 66)" stroke-width="1px" opacity="0.25"></line><line x1="0" y1="46.875" x2="1392.3125" y2="46.875" fill="rgb(0, 0, 0)" stroke="rgb(66, 66, 66)" stroke-width="1px" opacity="0.25"></line><line x1="0" y1="0" x2="1392.3125" y2="0" fill="rgb(0, 0, 0)" stroke="rgb(66, 66, 66)" stroke-width="1px" opacity="0.25"></line></g></g></g><g><g><line x1="0" y1="468.75" x2="1392.3125" y2="468.75" fill="rgb(0, 0, 0)" stroke="rgb(153, 153, 153)" stroke-width="1.5px"></line></g></g><g><g><line x1="116.02604166666666" y1="0" x2="116.02604166666666" y2="375" fill="rgb(0, 0, 0)" stroke="rgb(153, 153, 153)" stroke-width="1.5px"></line></g></g><g><g><g><g><g><path stroke="rgb(0, 119, 187)" stroke-width="2px" d="M116.02604166666666,167.94058084487915L127.62864583333332,128.45553159713742L139.23125000000002,107.5627326965332L150.83385416666667,96.85810804367065L162.43645833333335,88.26624155044556L174.0390625,75.35494565963745L185.64166666666665,71.69283628463745L197.24427083333333,76.5756368637085L208.84687499999998,70.19044160842896L220.44947916666666,62.960100173950195L232.05208333333331,61.73940896987915L243.6546875,62.068068981170654L255.25729166666665,57.74863958358765L266.8598958333333,53.804826736450195L278.46250000000003,54.64993715286255L290.0651041666667,55.119431018829346L301.66770833333334,52.34938859939575L313.2703125,50.75308084487915L324.8729166666667,53.6639928817749L336.47552083333335,55.9645414352417L348.078125,51.0347843170166L359.6807291666667,53.61703634262085L371.2833333333333,53.24141979217529L382.8859375,52.5371789932251L394.48854166666666,50.09576082229614L406.09114583333337,50.330543518066406L417.69374999999997,51.26953125L429.2963541666667,45.682454109191895L440.8989583333333,49.39152002334595L452.50156250000003,47.09097146987915L464.10416666666663,46.62147760391235L475.70677083333334,49.29764270782471L487.309375,47.32571840286255L498.9119791666667,51.879894733428955L510.5145833333333,47.513508796691895L522.1171875,44.60259675979614L533.7197916666667,45.72941064834595L545.3223958333333,44.837379455566406L556.9250000000001,47.23180532455444L568.5276041666666,46.715354919433594L580.1302083333334,44.7434663772583L591.7328125,46.05807065963745L603.3354166666667,45.353829860687256L614.9380208333333,44.46176290512085L626.540625,49.2037296295166L638.1432291666666,45.72941064834595L649.7458333333334,45.7763671875L661.3484374999999,45.870280265808105L672.9510416666667,44.7434663772583L684.5536458333333,44.1800594329834L696.15625,37.4192476272583L707.7588541666667,36.0576868057251L719.3614583333334,36.48025989532471L730.9640625000001,36.0576868057251L742.5666666666666,35.729026794433594L754.1692708333333,35.682106018066406L765.771875,35.5881929397583L777.3744791666667,36.010730266571045L788.9770833333333,36.3863468170166L800.5796875,36.527180671691895L812.1822916666667,36.0576868057251L823.7848958333334,35.0247859954834L835.3874999999999,35.729026794433594L846.9901041666666,35.3534460067749L858.5927083333333,35.682106018066406L870.1953125,35.86989641189575L881.7979166666667,34.977829456329346L893.4005208333334,34.5552921295166L905.0031250000001,35.212576389312744L916.6057291666666,36.0576868057251L928.2083333333333,35.5881929397583L939.8109375,35.5881929397583L951.4135416666667,35.729026794433594L963.0161458333333,36.198556423187256L974.61875,35.07174253463745L986.2213541666667,35.30648946762085L997.8239583333334,35.118699073791504L1009.4265624999999,35.2595329284668L1021.0291666666666,35.118699073791504L1032.6317708333333,35.0247859954834L1044.234375,34.83699560165405L1055.8369791666667,35.494279861450195L1067.4395833333333,34.93087291717529L1079.0421875,34.93087291717529L1090.6447916666666,35.400402545928955L1102.2473958333333,35.16565561294556L1113.8500000000001,35.3534460067749L1125.4526041666668,34.696125984191895L1137.0552083333332,34.74308252334595L1148.6578124999999,35.0247859954834L1160.2604166666667,34.7900390625L1171.8630208333334,34.50833559036255L1183.465625,35.30648946762085L1195.0682291666667,34.50833559036255L1206.6708333333333,34.93087291717529L1218.2734375,34.74308252334595L1229.8760416666667,34.3205451965332L1241.4786458333333,35.07174253463745L1253.08125,34.461379051208496L1264.6838541666666,34.367501735687256" style="fill: none;" fill="none"></path></g><g><path stroke="rgb(187, 187, 187)" stroke-width="2px" d="M116.02604166666666,169.81859207153317L127.62864583333332,123.99526834487915L139.23125000000002,108.31393003463745L150.83385416666667,95.7782506942749L162.43645833333335,84.228515625L174.0390625,84.3224287033081L185.64166666666665,75.26103258132935L197.24427083333333,66.29358530044556L208.84687499999998,68.0776834487915L220.44947916666666,77.0451307296753L232.05208333333331,69.7209119796753L243.6546875,60.4248046875L255.25729166666665,60.847342014312744L266.8598958333333,58.0303430557251L278.46250000000003,61.7863655090332L290.0651041666667,57.5608491897583L301.66770833333334,79.90912199020386L313.2703125,57.3261022567749L324.8729166666667,53.85178327560425L336.47552083333335,54.64993715286255L348.078125,54.4621467590332L359.6807291666667,53.38228940963745L371.2833333333333,51.92681550979614L382.8859375,54.743850231170654L394.48854166666666,54.55602407455444L406.09114583333337,49.9079704284668L417.69374999999997,49.81409311294556L429.2963541666667,52.95975208282471L440.8989583333333,52.208518981933594L452.50156250000003,50.330543518066406L464.10416666666663,55.260300636291504L475.70677083333334,56.01149797439575L487.309375,50.28358697891235L498.9119791666667,48.311662673950195L510.5145833333333,52.11464166641235L522.1171875,50.565290451049805L533.7197916666667,49.06286001205444L545.3223958333333,50.659167766571045L556.9250000000001,48.828113079071045L568.5276041666666,49.06286001205444L580.1302083333334,50.330543518066406L591.7328125,48.029959201812744L603.3354166666667,47.8421688079834L614.9380208333333,52.490222454071045L626.540625,47.8421688079834L638.1432291666666,47.46658802032471L649.7458333333334,52.208518981933594L661.3484374999999,48.4055757522583L672.9510416666667,44.93125677108765L684.5536458333333,43.10020208358765L696.15625,38.123488426208496L707.7588541666667,37.513160705566406L719.3614583333334,37.747907638549805L730.9640625000001,38.029611110687256L742.5666666666666,38.358235359191895L754.1692708333333,38.029611110687256L765.771875,37.13754415512085L777.3744791666667,36.66805028915405L788.9770833333333,37.841784954071045L800.5796875,36.8558406829834L812.1822916666667,36.433303356170654L823.7848958333334,36.62109375L835.3874999999999,36.808884143829346L846.9901041666666,37.043631076812744L858.5927083333333,35.916852951049805L870.1953125,36.527180671691895L881.7979166666667,36.715006828308105L893.4005208333334,36.99671030044556L905.0031250000001,36.24547719955444L916.6057291666666,37.1845006942749L928.2083333333333,36.48025989532471L939.8109375,35.86989641189575L951.4135416666667,36.010730266571045L963.0161458333333,36.48025989532471L974.61875,35.2595329284668L986.2213541666667,36.24547719955444L997.8239583333334,35.86989641189575L1009.4265624999999,35.400402545928955L1021.0291666666666,35.86989641189575L1032.6317708333333,36.57413721084595L1044.234375,36.76192760467529L1055.8369791666667,35.8229398727417L1067.4395833333333,35.729026794433594L1079.0421875,35.682106018066406L1090.6447916666666,35.8229398727417L1102.2473958333333,35.3534460067749L1113.8500000000001,35.916852951049805L1125.4526041666668,35.86989641189575L1137.0552083333332,35.86989641189575L1148.6578124999999,35.96380949020386L1160.2604166666667,36.33939027786255L1171.8630208333334,36.10464334487915L1183.465625,36.48025989532471L1195.0682291666667,35.96380949020386L1206.6708333333333,36.292433738708496L1218.2734375,36.48025989532471L1229.8760416666667,35.729026794433594L1241.4786458333333,35.86989641189575L1253.08125,36.715006828308105L1264.6838541666666,36.33939027786255" style="fill: none;" fill="none"></path></g><g><path stroke="rgb(0, 119, 187)" stroke-width="2px" d="M116.02604166666666,209.72617864608765L127.62864583333332,138.97236585617065L139.23125000000002,118.97159814834595L150.83385416666667,99.8159408569336L162.43645833333335,125.92023611068726L174.0390625,93.75940561294556L185.64166666666665,85.1675033569336L197.24427083333333,80.14386892318726L208.84687499999998,71.5050458908081L220.44947916666666,82.8669548034668L232.05208333333331,69.3453311920166L243.6546875,65.96492528915405L255.25729166666665,67.9837703704834L266.8598958333333,72.63182401657104L278.46250000000003,65.63626527786255L290.0651041666667,64.7911548614502L301.66770833333334,63.94608020782471L313.2703125,61.6924524307251L324.8729166666667,63.6174201965332L336.47552083333335,61.2229585647583L348.078125,64.83811140060425L359.6807291666667,59.25103425979614L371.2833333333333,61.6924524307251L382.8859375,60.9882116317749L394.48854166666666,57.51389265060425L406.09114583333337,58.499836921691895L417.69374999999997,57.466936111450195L429.2963541666667,59.485816955566406L440.8989583333333,58.405959606170654L452.50156250000003,58.96936655044556L464.10416666666663,60.753464698791504L475.70677083333334,55.58892488479614L487.309375,57.74863958358765L498.9119791666667,62.11502552032471L510.5145833333333,55.44809103012085L522.1171875,53.710949420928955L533.7197916666667,56.574904918670654L545.3223958333333,55.91758489608765L556.9250000000001,56.01149797439575L568.5276041666666,53.14754247665405L580.1302083333334,55.4011344909668L591.7328125,53.288376331329346L603.3354166666667,56.340157985687256L614.9380208333333,58.07729959487915L626.540625,54.1334867477417L638.1432291666666,55.44809103012085L649.7458333333334,57.2321891784668L661.3484374999999,51.5042781829834L672.9510416666667,55.30725717544556L684.5536458333333,53.992652893066406L696.15625,47.8421688079834L707.7588541666667,47.278761863708496L719.3614583333334,46.198904514312744L730.9640625000001,45.82332372665405L742.5666666666666,46.668434143066406L754.1692708333333,45.7763671875L765.771875,45.353829860687256L777.3744791666667,45.25991678237915L788.9770833333333,45.072126388549805L800.5796875,45.49466371536255L812.1822916666667,45.2129602432251L823.7848958333334,45.02516984939575L835.3874999999999,44.884300231933594L846.9901041666666,45.3068733215332L858.5927083333333,45.588576793670654L870.1953125,44.649553298950195L881.7979166666667,45.11908292770386L893.4005208333334,44.46176290512085L905.0031250000001,44.367849826812744L916.6057291666666,44.7434663772583L928.2083333333333,45.072126388549805L939.8109375,44.649553298950195L951.4135416666667,44.69650983810425L963.0161458333333,43.616652488708496L974.61875,43.89835596084595L986.2213541666667,44.649553298950195L997.8239583333334,43.7105655670166L1009.4265624999999,44.039225578308105L1021.0291666666666,44.039225578308105L1032.6317708333333,44.08614635467529L1044.234375,43.9453125L1055.8369791666667,43.28802824020386L1067.4395833333333,44.039225578308105L1079.0421875,43.42886209487915L1090.6447916666666,43.616652488708496L1102.2473958333333,43.9453125L1113.8500000000001,44.1800594329834L1125.4526041666668,43.99226903915405L1137.0552083333332,44.08614635467529L1148.6578124999999,43.851399421691895L1160.2604166666667,43.851399421691895L1171.8630208333334,44.60259675979614L1183.465625,44.039225578308105L1195.0682291666667,43.522775173187256L1206.6708333333333,44.039225578308105L1218.2734375,44.273972511291504L1229.8760416666667,43.522775173187256L1241.4786458333333,43.241071701049805L1253.08125,43.89835596084595L1264.6838541666666,43.757522106170654" style="fill: none;" fill="none"></path></g><g><path stroke="rgb(255, 112, 67)" stroke-width="2px" d="M116.02604166666666,259.5872104167938L127.62864583333332,126.4366865158081L139.23125000000002,109.11208391189575L150.83385416666667,95.4495906829834L162.43645833333335,80.6603193283081L174.0390625,71.36417627334595L185.64166666666665,68.7819242477417L197.24427083333333,72.4440336227417L208.84687499999998,61.73940896987915L220.44947916666666,58.8284969329834L232.05208333333331,56.856608390808105L243.6546875,53.47620248794556L255.25729166666665,57.93646574020386L266.8598958333333,53.710949420928955L278.46250000000003,52.02072858810425L290.0651041666667,55.4011344909668L301.66770833333334,49.344563484191895L313.2703125,49.9079704284668L324.8729166666667,47.419631481170654L336.47552083333335,49.626266956329346L348.078125,43.80447864532471L359.6807291666667,53.14754247665405L371.2833333333333,48.78119230270386L382.8859375,49.250686168670654L394.48854166666666,53.14754247665405L406.09114583333337,47.184884548187256L417.69374999999997,49.29764270782471L429.2963541666667,49.9079704284668L440.8989583333333,44.60259675979614L452.50156250000003,47.56046533584595L464.10416666666663,43.42886209487915L475.70677083333334,44.93125677108765L487.309375,40.7526969909668L498.9119791666667,42.9124116897583L510.5145833333333,47.32571840286255L522.1171875,41.0813570022583L533.7197916666667,51.598191261291504L545.3223958333333,40.7526969909668L556.9250000000001,43.522775173187256L568.5276041666666,46.668434143066406L580.1302083333334,42.16121435165405L591.7328125,41.175270080566406L603.3354166666667,42.818498611450195L614.9380208333333,42.5837516784668L626.540625,42.208170890808105L638.1432291666666,41.6447639465332L649.7458333333334,40.56490659713745L661.3484374999999,40.65881967544556L672.9510416666667,40.33015966415405L684.5536458333333,38.874685764312744L696.15625,34.93087291717529L707.7588541666667,33.4284782409668L719.3614583333334,33.24068784713745L730.9640625000001,33.00594091415405L742.5666666666666,32.348620891571045L754.1692708333333,32.536447048187256L765.771875,33.00594091415405L777.3744791666667,34.50833559036255L788.9770833333333,32.58336782455444L800.5796875,32.4894905090332L812.1822916666667,32.7242374420166L823.7848958333334,32.58336782455444L835.3874999999999,32.67728090286255L846.9901041666666,32.7242374420166L858.5927083333333,32.11387395858765L870.1953125,32.630324363708496L881.7979166666667,32.44253396987915L893.4005208333334,33.7571382522583L905.0031250000001,32.30170011520386L916.6057291666666,33.146774768829346L928.2083333333333,32.066917419433594L939.8109375,32.3955774307251L951.4135416666667,32.11387395858765L963.0161458333333,31.738293170928955L974.61875,31.9260835647583L986.2213541666667,32.1608304977417L997.8239583333334,31.738293170928955L1009.4265624999999,31.503546237945557L1021.0291666666666,32.1608304977417L1032.6317708333333,31.785213947296143L1044.234375,32.11387395858765L1055.8369791666667,32.865071296691895L1067.4395833333333,31.64438009262085L1079.0421875,31.879127025604248L1090.6447916666666,31.597423553466797L1102.2473958333333,32.771193981170654L1113.8500000000001,32.30170011520386L1125.4526041666668,32.30170011520386L1137.0552083333332,32.20778703689575L1148.6578124999999,32.4894905090332L1160.2604166666667,32.536447048187256L1171.8630208333334,31.64438009262085L1183.465625,31.738293170928955L1195.0682291666667,31.785213947296143L1206.6708333333333,31.550467014312744L1218.2734375,31.3626766204834L1229.8760416666667,31.973040103912354L1241.4786458333333,32.11387395858765L1253.08125,31.879127025604248L1264.6838541666666,31.503546237945557" style="fill: none;" fill="none"></path></g></g></g></g></g></g><g transform="translate(41, 375)" clip-path="url(#clip_1)"><clipPath id="clip_1"><rect width="1392" height="25"></rect></clipPath><g><g><line x1="0" y1="0" x2="0" y2="5" style="visibility: inherit;" fill="rgb(0, 0, 0)" stroke="rgb(204, 204, 204)" stroke-width="1px"></line><line x1="116.02604166666666" y1="0" x2="116.02604166666666" y2="5" style="visibility: inherit;" fill="rgb(0, 0, 0)" stroke="rgb(204, 204, 204)" stroke-width="1px"></line><line x1="232.05208333333331" y1="0" x2="232.05208333333331" y2="5" style="visibility: inherit;" fill="rgb(0, 0, 0)" stroke="rgb(204, 204, 204)" stroke-width="1px"></line><line x1="348.078125" y1="0" x2="348.078125" y2="5" style="visibility: inherit;" fill="rgb(0, 0, 0)" stroke="rgb(204, 204, 204)" stroke-width="1px"></line><line x1="464.10416666666663" y1="0" x2="464.10416666666663" y2="5" style="visibility: inherit;" fill="rgb(0, 0, 0)" stroke="rgb(204, 204, 204)" stroke-width="1px"></line><line x1="580.1302083333334" y1="0" x2="580.1302083333334" y2="5" style="visibility: inherit;" fill="rgb(0, 0, 0)" stroke="rgb(204, 204, 204)" stroke-width="1px"></line><line x1="696.15625" y1="0" x2="696.15625" y2="5" style="visibility: inherit;" fill="rgb(0, 0, 0)" stroke="rgb(204, 204, 204)" stroke-width="1px"></line><line x1="812.1822916666667" y1="0" x2="812.1822916666667" y2="5" style="visibility: inherit;" fill="rgb(0, 0, 0)" stroke="rgb(204, 204, 204)" stroke-width="1px"></line><line x1="928.2083333333333" y1="0" x2="928.2083333333333" y2="5" style="visibility: inherit;" fill="rgb(0, 0, 0)" stroke="rgb(204, 204, 204)" stroke-width="1px"></line><line x1="1044.234375" y1="0" x2="1044.234375" y2="5" style="visibility: inherit;" fill="rgb(0, 0, 0)" stroke="rgb(204, 204, 204)" stroke-width="1px"></line><line x1="1160.2604166666667" y1="0" x2="1160.2604166666667" y2="5" style="visibility: inherit;" fill="rgb(0, 0, 0)" stroke="rgb(204, 204, 204)" stroke-width="1px"></line><line x1="1276.2864583333333" y1="0" x2="1276.2864583333333" y2="5" style="visibility: inherit;" fill="rgb(0, 0, 0)" stroke="rgb(204, 204, 204)" stroke-width="1px"></line><line x1="1392.3125" y1="0" x2="1392.3125" y2="5" style="visibility: inherit;" fill="rgb(0, 0, 0)" stroke="rgb(204, 204, 204)" stroke-width="1px"></line></g><g transform="translate(0, 8)"><text x="0" y="0" dx="0em" dy="0.95em" style="text-anchor: middle; visibility: hidden; font-family: &quot;Helvetica Neue&quot;, sans-serif; font-size: 12px; font-weight: 200;" fill="rgb(33, 33, 33)" stroke="none" stroke-width="1px">-10</text><text x="116.02604166666666" y="0" dx="0em" dy="0.95em" style="text-anchor: middle; visibility: inherit; font-family: &quot;Helvetica Neue&quot;, sans-serif; font-size: 12px; font-weight: 200;" fill="rgb(33, 33, 33)" stroke="none" stroke-width="1px">0</text><text x="232.05208333333331" y="0" dx="0em" dy="0.95em" style="text-anchor: middle; visibility: inherit; font-family: &quot;Helvetica Neue&quot;, sans-serif; font-size: 12px; font-weight: 200;" fill="rgb(33, 33, 33)" stroke="none" stroke-width="1px">10</text><text x="348.078125" y="0" dx="0em" dy="0.95em" style="text-anchor: middle; visibility: inherit; font-family: &quot;Helvetica Neue&quot;, sans-serif; font-size: 12px; font-weight: 200;" fill="rgb(33, 33, 33)" stroke="none" stroke-width="1px">20</text><text x="464.10416666666663" y="0" dx="0em" dy="0.95em" style="text-anchor: middle; visibility: inherit; font-family: &quot;Helvetica Neue&quot;, sans-serif; font-size: 12px; font-weight: 200;" fill="rgb(33, 33, 33)" stroke="none" stroke-width="1px">30</text><text x="580.1302083333334" y="0" dx="0em" dy="0.95em" style="text-anchor: middle; visibility: inherit; font-family: &quot;Helvetica Neue&quot;, sans-serif; font-size: 12px; font-weight: 200;" fill="rgb(33, 33, 33)" stroke="none" stroke-width="1px">40</text><text x="696.15625" y="0" dx="0em" dy="0.95em" style="text-anchor: middle; visibility: inherit; font-family: &quot;Helvetica Neue&quot;, sans-serif; font-size: 12px; font-weight: 200;" fill="rgb(33, 33, 33)" stroke="none" stroke-width="1px">50</text><text x="812.1822916666667" y="0" dx="0em" dy="0.95em" style="text-anchor: middle; visibility: inherit; font-family: &quot;Helvetica Neue&quot;, sans-serif; font-size: 12px; font-weight: 200;" fill="rgb(33, 33, 33)" stroke="none" stroke-width="1px">60</text><text x="928.2083333333333" y="0" dx="0em" dy="0.95em" style="text-anchor: middle; visibility: inherit; font-family: &quot;Helvetica Neue&quot;, sans-serif; font-size: 12px; font-weight: 200;" fill="rgb(33, 33, 33)" stroke="none" stroke-width="1px">70</text><text x="1044.234375" y="0" dx="0em" dy="0.95em" style="text-anchor: middle; visibility: inherit; font-family: &quot;Helvetica Neue&quot;, sans-serif; font-size: 12px; font-weight: 200;" fill="rgb(33, 33, 33)" stroke="none" stroke-width="1px">80</text><text x="1160.2604166666667" y="0" dx="0em" dy="0.95em" style="text-anchor: middle; visibility: inherit; font-family: &quot;Helvetica Neue&quot;, sans-serif; font-size: 12px; font-weight: 200;" fill="rgb(33, 33, 33)" stroke="none" stroke-width="1px">90</text><text x="1276.2864583333333" y="0" dx="0em" dy="0.95em" style="text-anchor: middle; visibility: inherit; font-family: &quot;Helvetica Neue&quot;, sans-serif; font-size: 12px; font-weight: 200;" fill="rgb(33, 33, 33)" stroke="none" stroke-width="1px">100</text><text x="1392.3125" y="0" dx="0em" dy="0.95em" style="text-anchor: middle; visibility: hidden; font-family: &quot;Helvetica Neue&quot;, sans-serif; font-size: 12px; font-weight: 200;" fill="rgb(33, 33, 33)" stroke="none" stroke-width="1px">110</text></g><line x1="0" y1="0" x2="1392.3125" y2="0" fill="rgb(0, 0, 0)" stroke="rgb(204, 204, 204)" stroke-width="1px"></line></g></g></g></g></svg>